<svg width="43" height="46" viewBox="0 0 43 46" fill="none" xmlns="http://www.w3.org/2000/svg">
<path d="M37.1364 0H5.86364C2.63864 0 0 2.7 0 6V40C0 43.3 2.63864 46 5.86364 46H37.1364C40.3614 46 43 43.3 43 40V6C43 2.7 40.3614 0 37.1364 0ZM34.4977 17L19.5455 32.3C18.9591 32.9 18.275 33.2 17.4932 33.2C16.8091 33.2 16.0273 32.9 15.4409 32.3L8.20909 24.9C7.62273 24.3 7.62273 23.4 8.20909 22.8L10.2614 20.7C10.8477 20.1 11.7273 20.1 12.3136 20.7L17.4932 26L30.3932 12.8C30.9795 12.2 31.8591 12.2 32.4455 12.8L34.4977 14.9C34.9864 15.5 34.9864 16.5 34.4977 17Z" fill="url(#paint0_linear_3229_31)"/>
<defs>
<linearGradient id="paint0_linear_3229_31" x1="39.6923" y1="1.64286" x2="16.768" y2="41.2045" gradientUnits="userSpaceOnUse">
<stop stop-color="#4F46E5"/>
<stop offset="1" stop-color="#B4C6FC"/>
</linearGradient>
</defs>
</svg>
